<svg viewBox="0 0 550 591" xmlns="http://www.w3.org/2000/svg">
  <defs>
    <filter id="bottomShadow" x="0" y="0" width="200%" height="200%">
      <feDropShadow dx="0" dy="12" stdDeviation="12" flood-color="#008066" />
    </filter>
    <pattern id="pattern0" patternContentUnits="objectBoundingBox" width="1" height="1">
      <use href="#imageBlob" transform="matrix(0.00143057 0 0 0.00108108 0.0404062 0)" />
    </pattern>
    <pattern id="pattern1" patternContentUnits="objectBoundingBox" width="1" height="1">
      <use href="#imageBlob" transform="matrix(0.00143057 0 0 0.00226984 0.0404062 0)" />
    </pattern>
    <image id="imageBlob" width="640" height="925" href="" />
  </defs>

  <mask id="maskBlob" mask-type="alpha">
    <path d="M263 47.1782C270.426 42.891 279.574 42.891 287 47.1782L501.157 170.822C508.583 175.109 513.157 183.032 513.157 191.606V438.894C513.157 447.468 508.583 455.391 501.157 459.678L287 583.322C279.574 587.609 270.426 587.609 263 583.322L48.843 459.678C41.4174 455.391 36.843 447.468 36.843 438.894V191.606C36.843 183.032 41.4174 175.109 48.843 170.822L263 47.1782Z" />
  </mask>

  <g>
    <path d="M263 47.1782C270.426 42.891 279.574 42.891 287 47.1782L501.157 170.822C508.583 175.109 513.157 183.032 513.157 191.606V438.894C513.157 447.468 508.583 455.391 501.157 459.678L287 583.322C279.574 587.609 270.426 587.609 263 583.322L48.843 459.678C41.4174 455.391 36.843 447.468 36.843 438.894V191.606C36.843 183.032 41.4174 175.109 48.843 170.822L263 47.1782Z" 
      fill="hsl(162, 100%, 40%)" filter="url(#bottomShadow)" />
  </g>

  <g mask="url(#maskBlob)">
    <rect x="37" width="476" height="630" fill="hsl(162, 100%, 40%)" />
  </g>

  <rect x="37" width="476" height="300" fill="url(#maskBlob)" />
</svg>